<?xml version="1.0" standalone="no"?>
<!DOCTYPE svg PUBLIC "-//W3C//DTD SVG 20010904//EN"
 "http://www.w3.org/TR/2001/REC-SVG-20010904/DTD/svg10.dtd">
<svg version="1.0" xmlns="http://www.w3.org/2000/svg"
 width="512.000000pt" height="512.000000pt" viewBox="0 0 512.000000 512.000000"
 preserveAspectRatio="xMidYMid meet">

<g transform="translate(0.000000,512.000000) scale(0.100000,-0.100000)"
fill="#000000" stroke="none">
<path d="M2186 5028 c-17 -16 -47 -80 -92 -198 -36 -96 -71 -180 -78 -186 -6
-6 -71 -30 -144 -53 -73 -24 -194 -74 -268 -111 l-136 -68 -177 79 c-111 50
-189 79 -211 79 -32 0 -54 -19 -282 -248 -229 -228 -248 -250 -248 -282 0 -22
29 -100 79 -211 l79 -177 -67 -135 c-38 -74 -89 -197 -114 -272 -25 -76 -49
-141 -54 -145 -4 -5 -87 -38 -183 -75 -117 -44 -182 -74 -197 -91 -23 -25 -23
-26 -23 -374 0 -348 0 -349 23 -374 15 -17 79 -47 197 -92 96 -36 179 -70 183
-74 5 -4 29 -69 54 -145 25 -75 76 -198 114 -272 l67 -135 -79 -176 c-50 -112
-79 -189 -79 -212 0 -32 18 -53 248 -282 230 -231 250 -248 283 -248 23 0 98
28 212 79 l176 79 134 -68 c75 -37 197 -88 272 -113 76 -25 141 -49 145 -54 4
-4 38 -87 74 -183 44 -115 76 -183 92 -198 25 -22 26 -22 374 -22 348 0 349 0
374 22 17 16 47 80 92 198 36 96 71 180 78 186 6 6 31 16 56 23 98 27 251 88
368 147 l124 62 176 -79 c113 -51 188 -79 211 -79 33 0 53 17 283 248 231 230
248 250 248 283 0 23 -28 98 -79 211 l-78 176 67 136 c37 75 88 197 113 272
25 75 49 140 54 144 4 4 87 38 183 74 118 45 182 75 198 92 21 24 22 32 22
215 0 188 0 190 -25 214 l-24 25 -504 0 c-606 0 -551 14 -562 -142 -29 -431
-221 -790 -555 -1041 -241 -181 -514 -271 -825 -270 -374 2 -700 137 -965 403
-267 266 -403 595 -403 970 0 375 136 704 403 970 246 247 542 379 904 405 85
7 103 11 123 31 l23 23 0 506 0 506 -25 24 c-24 25 -26 25 -214 25 -183 0
-191 -1 -215 -22z m292 -535 l-3 -398 -75 -7 c-174 -18 -351 -69 -512 -148
-640 -315 -980 -1017 -829 -1709 99 -450 399 -834 818 -1045 114 -58 301 -120
428 -142 135 -23 376 -23 510 0 569 100 1034 505 1208 1051 37 116 67 269 67
342 l0 43 400 0 401 0 -3 -96 -3 -97 -180 -69 c-99 -38 -185 -75 -192 -81 -7
-7 -25 -57 -41 -112 -43 -146 -95 -274 -168 -412 -35 -67 -64 -128 -64 -136 0
-7 36 -94 79 -193 l80 -179 -191 -192 -191 -191 -41 18 c-23 10 -103 45 -179
79 -76 33 -144 61 -153 61 -8 0 -70 -29 -137 -64 -149 -79 -268 -128 -407
-167 -57 -16 -110 -35 -117 -42 -6 -6 -43 -93 -81 -192 l-69 -180 -273 0 -272
0 -70 180 c-38 99 -74 185 -81 192 -7 7 -57 25 -112 41 -140 40 -270 93 -412
168 -67 35 -128 64 -136 64 -8 0 -95 -36 -193 -80 l-179 -79 -192 191 -191
191 18 41 c10 23 45 103 79 179 33 76 61 147 61 159 0 11 -15 46 -34 77 -78
130 -152 305 -201 476 -14 50 -31 95 -38 102 -7 6 -93 43 -192 81 l-180 69 0
273 0 272 180 70 c99 38 185 74 192 81 7 7 24 53 38 102 49 171 123 346 201
476 19 31 34 67 33 80 0 13 -36 103 -79 199 l-78 175 190 192 191 191 41 -18
c23 -10 103 -45 179 -79 76 -33 146 -61 157 -61 11 0 59 22 107 50 108 62 267
129 403 170 161 48 146 34 217 215 34 88 67 172 72 188 10 27 10 27 106 27
l95 0 -2 -397z"/>
<path d="M3159 4590 c-18 -10 -269 -606 -269 -637 0 -33 29 -61 83 -79 28 -9
92 -34 141 -55 103 -45 134 -48 163 -16 16 18 174 385 245 571 28 73 14 100
-77 141 -162 74 -249 97 -286 75z m164 -197 c16 -8 26 -20 24 -26 -90 -219
-160 -384 -166 -389 -5 -6 -79 15 -99 28 -2 1 80 205 153 377 17 41 25 42 88
10z"/>
<path d="M3865 4210 c-11 -4 -125 -113 -252 -242 -195 -196 -233 -239 -233
-263 0 -23 22 -49 123 -146 107 -104 126 -118 157 -119 31 0 52 18 267 232
155 155 234 241 238 259 9 39 -13 74 -97 154 -138 132 -158 145 -203 125z m75
-225 l34 -36 -156 -156 -156 -156 -41 34 -40 34 157 158 c86 86 159 157 162
157 4 0 21 -16 40 -35z"/>
<path d="M2355 3734 c-244 -43 -457 -155 -635 -334 -230 -230 -350 -518 -350
-840 0 -321 121 -611 350 -840 229 -229 519 -350 840 -350 322 0 610 120 840
350 229 229 350 519 350 840 0 321 -120 610 -350 840 -181 181 -395 292 -644
335 -109 18 -294 18 -401 -1z m450 -172 c380 -100 658 -378 757 -757 32 -123
36 -312 9 -443 -52 -252 -182 -462 -382 -617 -329 -256 -791 -286 -1151 -74
-236 139 -405 366 -481 644 -31 117 -31 374 1 492 53 196 135 339 276 479 140
141 290 227 474 273 112 28 123 29 277 27 103 -2 161 -9 220 -24z"/>
<path d="M2501 3314 c-15 -20 -21 -41 -21 -80 l0 -53 -42 -12 c-109 -29 -196
-97 -245 -191 -24 -46 -28 -65 -28 -138 0 -73 4 -93 28 -142 53 -107 155 -169
349 -212 143 -31 209 -58 248 -102 76 -87 55 -196 -49 -249 -137 -69 -331 -44
-411 53 -17 21 -36 54 -42 75 -21 70 -91 99 -135 57 -32 -29 -36 -55 -18 -109
41 -124 158 -226 299 -262 l46 -11 0 -53 c0 -71 26 -105 80 -105 54 0 80 34
80 105 l0 52 53 12 c121 27 234 107 278 199 31 65 32 176 0 246 -59 134 -161
200 -381 246 -58 12 -126 31 -153 42 -89 38 -132 117 -108 198 16 55 45 85
108 117 47 23 70 27 128 27 38 -1 86 -8 106 -16 46 -20 106 -73 126 -112 38
-76 99 -100 143 -56 33 33 34 63 5 119 -50 100 -137 173 -247 207 l-58 18 0
51 c0 71 -26 105 -80 105 -30 0 -43 -6 -59 -26z"/>
<path d="M4370 3593 c-137 -50 -581 -241 -599 -259 -30 -28 -30 -72 -1 -118
11 -19 38 -76 59 -126 47 -113 61 -130 103 -130 44 0 608 234 631 261 25 31
21 59 -18 156 -82 197 -115 238 -175 216z m8 -232 l20 -48 -207 -86 -206 -85
-22 46 c-12 26 -19 50 -15 54 9 9 383 166 398 167 6 1 20 -21 32 -48z"/>
</g>
</svg>
