<?xml version="1.0" standalone="no"?>
<!DOCTYPE svg PUBLIC "-//W3C//DTD SVG 20010904//EN"
 "http://www.w3.org/TR/2001/REC-SVG-20010904/DTD/svg10.dtd">
<svg version="1.0" xmlns="http://www.w3.org/2000/svg"
 width="1391.000000pt" height="398.000000pt" viewBox="0 0 1391.000000 398.000000"
 preserveAspectRatio="xMidYMid meet">

<g transform="translate(0.000000,398.000000) scale(0.100000,-0.100000)"
fill="#000000" stroke="none">
<path d="M2770 3950 c-195 -25 -372 -164 -441 -349 -78 -208 -30 -423 130
-581 114 -113 227 -160 386 -160 150 0 278 54 386 161 213 211 212 556 -1 769
-124 124 -291 182 -460 160z m30 -326 l0 -236 131 -180 c71 -99 132 -185 135
-192 3 -8 -15 -22 -48 -37 -46 -21 -68 -24 -173 -24 -118 0 -121 1 -198 37
-140 67 -231 186 -258 339 -31 173 54 364 202 460 59 37 140 68 182 69 l27 0
0 -236z m238 196 c71 -33 162 -114 199 -178 41 -69 63 -155 63 -242 0 -43 -4
-81 -9 -84 -5 -3 -96 22 -202 57 l-194 63 -3 213 -2 214 42 -7 c24 -4 71 -20
106 -36z m82 -551 c69 -23 129 -45 134 -50 15 -13 -80 -149 -105 -149 -6 0
-148 187 -173 228 -12 19 10 15 144 -29z"/>
<path d="M3742 3944 l-22 -15 0 -568 c0 -428 3 -570 12 -579 8 -8 57 -12 153
-12 96 0 145 4 153 12 9 9 12 153 12 585 l0 573 -26 10 c-14 6 -78 10 -142 10
-90 0 -123 -4 -140 -16z m218 -579 l0 -505 -75 0 -75 0 0 505 0 505 75 0 75 0
0 -505z"/>
<path d="M8390 3874 c-372 -42 -671 -199 -885 -467 -364 -454 -377 -1072 -32
-1547 98 -135 295 -300 452 -378 202 -100 466 -148 686 -123 296 34 559 159
764 366 496 497 495 1286 -1 1781 -182 181 -408 302 -652 348 -81 15 -272 27
-332 20z m48 -739 c-2 -1 -57 2 -123 7 -108 8 -349 49 -362 62 -3 2 -2 18 2
35 5 24 12 31 31 31 58 0 131 54 153 113 17 43 13 94 -9 137 l-20 39 62 66
c77 82 135 123 207 145 l56 18 3 -326 c1 -179 1 -326 0 -327z m225 603 c72
-39 180 -151 237 -247 45 -76 119 -245 120 -273 0 -12 -17 -20 -67 -32 -107
-24 -199 -37 -315 -44 l-108 -7 0 327 0 326 38 -10 c20 -5 63 -24 95 -40z
m-565 -62 l-53 -63 -55 1 c-163 3 -245 -168 -139 -288 28 -32 29 -37 17 -65
l-13 -30 -82 34 c-45 18 -107 47 -138 65 l-55 31 30 37 c66 83 222 203 340
262 63 32 177 79 193 80 5 0 -16 -29 -45 -64z m857 13 c149 -64 281 -159 393
-281 l43 -46 -56 -32 c-74 -42 -218 -101 -226 -92 -3 4 -16 36 -28 72 -38 107
-121 256 -193 346 -77 96 -78 96 67 33z m-936 -174 c76 -39 43 -155 -44 -155
-79 0 -112 84 -56 141 33 32 58 36 100 14z m-388 -279 c57 -29 126 -62 152
-71 44 -17 48 -21 44 -44 -25 -142 -47 -292 -52 -368 l-7 -93 -229 0 c-263 0
-236 -14 -218 116 14 105 53 232 100 334 34 72 96 180 103 180 2 0 49 -24 107
-54z m1854 -5 c94 -156 149 -321 170 -513 l6 -58 -230 0 -231 0 0 32 c0 24 9
39 41 66 69 59 86 129 50 208 -20 43 -64 81 -109 93 -20 6 -29 17 -38 48 l-12
40 82 32 c44 17 113 49 151 70 39 22 73 40 77 40 4 1 23 -26 43 -58z m-1434
-140 c118 -24 259 -41 337 -41 l52 0 0 -134 c0 -126 -1 -135 -20 -141 -32 -10
-76 -52 -90 -85 l-12 -30 -231 0 -230 0 7 106 c11 178 48 359 70 351 7 -3 59
-14 117 -26z m1003 13 c12 -31 5 -51 -25 -73 -59 -43 -84 -136 -55 -204 15
-38 76 -94 111 -103 19 -5 25 -13 25 -35 l0 -29 -229 0 -229 0 -12 30 c-14 33
-58 75 -90 85 -19 6 -20 15 -20 141 l0 134 59 0 c76 0 262 25 366 49 44 10 83
19 86 20 4 0 10 -6 13 -15z m135 -150 c61 -51 26 -144 -54 -144 -79 0 -112 84
-56 141 36 36 70 37 110 3z m-666 -266 c33 -17 46 -39 47 -76 0 -72 -94 -109
-145 -57 -69 69 12 179 98 133z m-753 -151 c0 -28 -7 -38 -37 -58 -54 -36 -76
-71 -81 -132 -6 -72 22 -127 81 -162 24 -14 53 -25 64 -25 16 0 23 -10 31 -41
10 -38 9 -41 -15 -50 -88 -33 -176 -74 -225 -104 l-58 -34 -28 42 c-95 137
-169 347 -187 530 l-7 67 231 0 231 0 0 -33z m560 3 c13 -33 76 -90 97 -90 10
0 13 -32 13 -134 l0 -135 -42 -5 c-24 -3 -79 -8 -123 -11 -91 -7 -225 -28
-303 -49 l-52 -14 -6 26 c-3 15 -7 32 -9 39 -2 6 7 19 20 27 53 35 81 114 64
179 -12 45 -58 100 -99 117 -25 10 -30 18 -30 46 l0 34 229 0 229 0 12 -30z
m776 -67 c-8 -113 -20 -198 -42 -299 l-15 -71 -77 18 c-101 25 -267 49 -330
49 -27 0 -64 3 -81 6 l-31 7 0 133 c0 124 1 133 20 139 32 10 76 52 90 85 l12
30 231 0 230 0 -7 -97z m549 35 c-22 -195 -82 -371 -181 -525 l-33 -52 -57 34
c-49 29 -137 70 -227 104 -25 10 -25 10 -12 63 17 66 41 235 50 351 l7 87 230
0 230 0 -7 -62z m-1774 -117 c32 -33 36 -58 14 -100 -34 -66 -132 -52 -158 22
-9 23 16 82 40 96 33 19 73 13 104 -18z m559 -626 l0 -325 -27 6 c-173 40
-348 238 -443 502 -19 52 -21 65 -10 72 32 20 322 65 438 69 l42 1 0 -325z
m390 294 c146 -25 190 -37 189 -52 -2 -35 -17 -50 -53 -54 -63 -6 -115 -42
-145 -100 -19 -36 -14 -122 10 -159 l21 -34 -59 -61 c-72 -76 -127 -115 -200
-140 -31 -10 -58 -19 -60 -19 -1 0 -3 147 -3 326 l0 326 93 -7 c50 -4 144 -16
207 -26z m-951 -111 c37 -123 123 -281 211 -386 33 -40 58 -72 55 -72 -2 0
-33 11 -67 24 -94 35 -194 88 -277 146 -79 56 -211 180 -211 199 0 16 227 128
266 130 6 1 16 -18 23 -41z m1389 -24 c61 -30 112 -59 112 -65 0 -17 -140
-149 -215 -201 -79 -56 -204 -122 -284 -149 -30 -11 -56 -19 -59 -19 -2 0 19
27 48 60 51 58 53 60 102 60 27 0 66 7 85 16 96 46 124 186 53 267 -27 31 -27
34 -14 65 17 41 17 41 172 -34z m-253 -66 c101 -46 34 -197 -68 -154 -48 20
-66 66 -44 112 24 49 64 64 112 42z"/>
<path d="M4520 3640 c-19 -19 -20 -33 -20 -423 0 -348 2 -406 16 -425 14 -21
22 -22 154 -22 113 0 142 3 154 16 14 13 16 66 16 429 l0 414 -22 15 c-18 13
-51 16 -150 16 -115 0 -130 -2 -148 -20z m230 -425 l0 -355 -80 0 -80 0 0 348
c0 192 3 352 7 355 3 4 39 7 80 7 l73 0 0 -355z"/>
<path d="M4122 3388 c-9 -9 -12 -89 -12 -299 0 -248 2 -290 16 -303 12 -13 41
-16 154 -16 136 0 140 1 155 24 23 35 18 582 -5 596 -23 15 -293 13 -308 -2z
m238 -303 l0 -225 -80 0 -80 0 0 225 0 225 80 0 80 0 0 -225z"/>
<path d="M1124 3214 c-21 -5 -29 -21 -91 -166 -14 -32 -23 -39 -92 -63 -42
-15 -102 -41 -135 -57 l-58 -29 -82 34 c-133 57 -110 64 -251 -76 -69 -69
-125 -132 -125 -140 0 -9 18 -57 39 -106 l39 -90 -35 -73 c-19 -40 -45 -102
-57 -138 l-23 -64 -93 -38 c-52 -21 -97 -44 -102 -51 -11 -17 -10 -335 2 -356
5 -10 47 -33 92 -51 46 -18 88 -37 94 -42 6 -5 24 -43 39 -86 15 -42 40 -102
55 -132 l28 -55 -33 -75 c-59 -132 -64 -114 71 -251 65 -66 128 -122 139 -125
12 -3 59 11 111 34 l91 39 54 -28 c30 -15 88 -40 129 -55 41 -15 80 -32 87
-38 6 -6 26 -47 43 -91 18 -44 36 -86 42 -92 8 -10 58 -13 190 -13 l179 0 28
63 c15 34 36 80 45 103 16 37 24 43 74 59 31 10 93 34 137 54 l80 37 85 -38
c47 -21 94 -38 104 -38 20 0 234 204 255 244 11 19 7 35 -28 114 l-39 91 43
98 c23 54 48 117 55 140 13 41 15 43 104 78 50 20 97 44 104 53 19 24 16 172
-4 201 l-16 23 -249 -4 c-169 -2 -252 -7 -260 -14 -6 -7 -15 -49 -20 -94 -18
-157 -77 -285 -182 -397 -119 -126 -250 -193 -417 -214 -282 -35 -558 113
-692 372 -48 93 -68 184 -68 311 0 125 16 194 72 308 33 67 58 101 122 165
127 125 244 182 414 203 46 5 89 15 97 22 13 10 15 54 15 260 0 218 -2 249
-17 261 -16 14 -145 22 -189 13z m126 -273 l0 -199 -57 -7 c-284 -35 -535
-243 -629 -520 -39 -114 -46 -295 -15 -416 66 -263 250 -459 516 -550 63 -21
87 -24 230 -24 153 1 163 2 242 31 120 45 188 89 284 184 129 128 194 252 222
426 l12 74 197 0 198 0 0 -49 0 -48 -97 -39 -96 -39 -24 -75 c-13 -41 -42
-113 -64 -159 -21 -46 -39 -90 -39 -97 0 -7 16 -47 35 -90 19 -42 35 -82 35
-88 0 -6 -42 -52 -92 -103 l-93 -91 -93 41 -93 41 -97 -47 c-53 -26 -128 -58
-166 -70 l-70 -22 -35 -92 -36 -93 -136 0 -136 0 -37 95 -38 95 -56 16 c-32 9
-105 39 -164 67 l-108 50 -92 -41 -93 -41 -93 92 c-69 68 -92 97 -89 112 3 11
19 55 38 97 l33 77 -51 108 c-28 59 -58 133 -67 165 l-16 56 -95 38 -96 38 3
135 3 135 85 34 c47 18 89 37 93 42 5 4 22 48 39 96 16 49 46 119 66 157 l36
67 -16 43 c-9 23 -27 66 -39 95 l-23 53 95 95 95 95 81 -35 c45 -20 90 -36
100 -36 11 0 50 16 89 35 38 19 105 47 149 61 44 15 85 31 91 36 7 5 22 37 35
71 41 114 44 117 94 117 l45 0 0 -199z"/>
<path d="M11528 2271 c-3 -891 -3 -900 -24 -927 -36 -49 -95 -55 -145 -15
l-24 19 -5 848 c-5 801 -6 849 -23 852 -16 3 -17 -39 -15 -852 l3 -855 30 -31
c16 -17 45 -35 65 -41 22 -6 236 -9 600 -7 529 3 565 4 568 21 3 16 -26 17
-512 17 -284 0 -516 3 -516 8 0 4 7 16 15 26 13 17 15 143 15 908 l0 888 1115
0 1115 0 2 -592 c3 -555 4 -593 21 -596 16 -3 17 31 17 612 l0 616 -1150 0
-1150 0 -2 -899z"/>
<path d="M11450 2272 c0 -473 -3 -867 -6 -876 -3 -9 -12 -16 -20 -16 -12 0
-14 129 -14 839 0 462 -3 846 -6 855 -3 9 -12 16 -20 16 -12 0 -14 -132 -14
-860 l0 -860 25 -16 c32 -21 71 -7 85 32 7 16 9 337 8 882 -3 807 -4 857 -20
860 -17 3 -18 -43 -18 -856z"/>
<path d="M11766 2994 c-3 -9 -6 -66 -6 -129 0 -83 4 -116 14 -124 10 -8 267
-10 952 -9 l939 3 3 138 3 137 -950 0 c-856 0 -949 -2 -955 -16z m1864 -124
l0 -100 -912 2 -913 3 -3 98 -3 97 916 0 915 0 0 -100z"/>
<path d="M11892 2873 c3 -17 50 -18 828 -18 778 0 825 1 828 18 3 16 -42 17
-828 17 -786 0 -831 -1 -828 -17z"/>
<path d="M1583 2978 c-10 -13 -114 -254 -127 -295 -6 -18 -1 -26 23 -41 53
-32 140 -58 158 -46 20 13 132 271 132 307 1 24 -6 31 -54 53 -70 32 -118 40
-132 22z m86 -87 c12 -8 8 -26 -28 -111 -39 -90 -46 -100 -65 -94 -11 4 -23 8
-25 10 -2 2 11 36 28 77 17 41 35 86 41 101 10 27 25 32 49 17z"/>
<path d="M1830 2694 c-59 -58 -113 -116 -120 -130 -13 -23 -11 -28 45 -84 35
-35 68 -60 80 -60 24 0 255 228 255 250 0 20 -116 130 -136 130 -9 0 -65 -47
-124 -106z m150 -10 c12 -13 2 -26 -66 -95 -78 -79 -78 -79 -98 -59 -20 20
-20 20 54 95 41 41 80 75 86 75 6 0 17 -7 24 -16z"/>
<path d="M3312 2664 c-12 -8 -22 -21 -22 -28 0 -7 -84 -68 -186 -135 -158
-103 -191 -121 -227 -122 -52 -1 -366 121 -402 157 -46 46 -118 18 -118 -46 0
-43 35 -73 78 -67 44 6 368 -122 396 -157 13 -17 30 -26 48 -26 30 0 71 25 71
43 0 19 361 251 392 252 22 0 55 -34 212 -220 116 -136 186 -227 186 -241 0
-33 37 -72 70 -76 44 -4 393 -282 409 -324 12 -34 51 -57 78 -47 28 10 53 35
53 53 0 28 395 486 429 498 76 27 58 132 -23 132 -36 0 -66 -25 -66 -56 0 -10
-91 -126 -201 -257 l-201 -238 -28 18 c-69 45 -379 300 -383 315 -3 10 -18 25
-34 35 -35 20 -403 454 -421 496 -24 56 -67 72 -110 41z"/>
<path d="M11766 2594 c-3 -9 -6 -89 -6 -179 0 -90 3 -170 6 -179 5 -14 41 -16
300 -16 l294 0 0 195 0 195 -294 0 c-259 0 -295 -2 -300 -16z m554 -174 c0
-153 -1 -160 -20 -160 -11 0 -20 5 -20 11 0 18 -123 179 -137 179 -16 0 -144
-170 -137 -181 3 -5 -16 -9 -42 -9 -46 0 -46 0 -32 23 8 12 21 32 28 44 11 17
20 20 42 16 18 -4 28 -1 28 7 0 19 -41 71 -51 64 -15 -9 -92 -127 -92 -141 0
-9 -15 -13 -44 -13 l-43 0 0 153 c0 85 3 157 7 160 3 4 120 7 260 7 l253 0 0
-160z m-116 -97 l47 -63 -106 0 c-82 0 -105 3 -99 13 26 44 98 127 104 120 4
-4 28 -36 54 -70z"/>
<path d="M11854 2506 c-13 -22 -14 -29 -2 -53 25 -53 108 -37 108 22 0 55 -75
76 -106 31z m66 -32 c0 -14 -21 -19 -33 -7 -9 9 13 34 24 27 5 -3 9 -12 9 -20z"/>
<path d="M12447 2603 c-4 -3 -7 -10 -7 -15 0 -4 125 -7 278 -6 178 2 276 7
275 13 -3 11 -535 20 -546 8z"/>
<path d="M13080 2595 c0 -13 39 -15 295 -15 256 0 295 2 295 15 0 13 -39 15
-295 15 -256 0 -295 -2 -295 -15z"/>
<path d="M1160 2555 c-210 -47 -396 -230 -445 -436 -48 -207 7 -401 160 -555
132 -133 261 -182 453 -172 385 20 646 411 519 777 -60 172 -209 320 -376 372
-87 27 -226 33 -311 14z m255 -80 c319 -83 475 -432 329 -734 -34 -69 -141
-179 -209 -214 -117 -59 -272 -76 -383 -43 -144 42 -266 147 -329 283 -34 71
-37 87 -41 186 -4 92 -1 118 19 179 37 117 121 223 231 291 97 60 263 83 383
52z"/>
<path d="M1256 2344 c-3 -9 -6 -24 -6 -34 0 -13 -14 -25 -42 -38 -112 -49
-150 -170 -81 -253 32 -38 60 -52 158 -78 94 -26 122 -42 136 -78 24 -64 -33
-113 -133 -113 -65 0 -114 27 -133 74 -15 35 -35 49 -59 40 -64 -25 31 -169
125 -189 23 -5 29 -12 29 -34 0 -31 16 -51 42 -51 19 0 38 28 38 57 0 13 14
24 48 36 84 31 122 77 122 150 0 97 -48 142 -190 182 -101 28 -140 55 -140 99
0 56 71 102 143 93 34 -4 50 -14 83 -51 42 -48 63 -56 84 -31 27 32 -38 119
-112 150 -25 10 -38 22 -38 34 0 36 -12 51 -40 51 -16 0 -30 -7 -34 -16z"/>
<path d="M4982 2227 l-322 -322 0 -75 0 -75 256 -350 c141 -192 288 -395 328
-450 40 -55 148 -203 241 -330 92 -126 231 -317 309 -423 132 -182 141 -191
157 -175 14 16 270 365 1057 1445 l202 277 0 83 0 83 -318 318 -317 317 -635
0 -635 0 -323 -323z m473 -157 l-160 -160 -152 0 c-84 0 -153 3 -153 7 0 4 69
76 152 160 l153 153 160 0 160 0 -160 -160z m720 10 c41 -82 75 -154 75 -160
0 -6 -109 -10 -315 -10 -173 0 -315 2 -315 5 0 3 35 75 77 160 l78 155 162 0
163 0 75 -150z m560 -10 l160 -160 -160 0 -160 0 -160 160 -160 160 160 0 160
0 160 -160z m-1151 -915 c359 -763 349 -742 338 -730 -31 35 -932 1316 -932
1326 0 6 62 8 156 7 l156 -3 282 -600z m666 593 c0 -18 -301 -921 -310 -931
-6 -7 -320 911 -320 936 0 4 142 7 315 7 245 0 315 -3 315 -12z m640 7 c0 -4
-212 -306 -472 -673 -259 -367 -469 -660 -466 -652 11 31 612 1306 621 1318 7
9 52 12 163 12 85 0 154 -2 154 -5z"/>
<path d="M9971 2539 c-91 -18 -173 -90 -202 -176 -7 -21 -9 -65 -7 -104 5 -58
2 -71 -13 -85 -13 -11 -19 -31 -19 -56 0 -32 6 -45 30 -66 17 -15 30 -33 30
-42 1 -36 56 -116 102 -145 48 -31 59 -45 33 -45 -32 0 -126 -50 -170 -91 -67
-62 -96 -117 -103 -194 l-5 -65 397 0 396 0 0 43 c0 68 -27 133 -82 192 -48
53 -150 115 -190 115 -26 0 -22 13 11 33 43 25 86 79 107 133 10 27 30 59 44
70 29 26 34 91 8 121 -11 13 -16 38 -15 88 0 56 -5 80 -26 122 -57 112 -197
178 -326 152z m168 -101 c28 -14 53 -36 71 -65 26 -41 47 -109 37 -120 -3 -2
-34 4 -69 15 -34 11 -86 23 -113 26 -63 9 -71 14 -88 54 l-13 32 -60 -51 c-58
-49 -59 -50 -62 -25 -4 34 31 96 71 123 66 45 144 49 226 11z m-178 -199 c11
-5 54 -17 97 -25 42 -7 96 -21 120 -30 l42 -16 0 -71 c0 -56 -5 -81 -23 -112
-59 -105 -196 -123 -282 -37 -42 42 -55 84 -55 174 0 64 1 67 38 97 43 35 38
34 63 20z m109 -444 c0 -9 -9 -15 -25 -15 -16 0 -25 6 -25 15 0 9 9 15 25 15
16 0 25 -6 25 -15z m-76 -84 l49 -29 54 30 54 30 44 -17 c57 -21 131 -89 150
-137 l15 -38 -315 0 -315 0 15 38 c9 20 28 50 43 66 31 32 119 86 142 86 8 0
37 -13 64 -29z"/>
<path d="M2058 2436 c-130 -54 -178 -80 -178 -95 0 -5 16 -43 35 -85 26 -56
39 -76 54 -76 21 0 211 74 279 109 52 26 53 43 9 131 -22 44 -38 66 -52 68
-11 1 -77 -22 -147 -52z m132 -51 c21 -26 5 -40 -95 -79 -79 -32 -99 -36 -106
-25 -18 27 -3 41 86 79 104 46 99 44 115 25z"/>
<path d="M12440 2475 c0 -13 34 -15 278 -13 176 2 277 7 277 13 0 6 -101 11
-277 13 -244 2 -278 0 -278 -13z"/>
<path d="M13080 2475 c0 -13 39 -15 295 -15 256 0 295 2 295 15 0 13 -39 15
-295 15 -256 0 -295 -2 -295 -15z"/>
<path d="M12451 2371 c-7 -5 -10 -14 -7 -20 8 -12 537 -16 549 -4 4 3 2 12 -4
20 -9 10 -65 13 -268 13 -141 0 -262 -4 -270 -9z"/>
<path d="M13087 2374 c-4 -4 -7 -13 -7 -21 0 -10 39 -13 196 -13 181 0 195 1
192 18 -3 15 -21 17 -189 20 -102 1 -188 -1 -192 -4z"/>
<path d="M13563 2343 c-17 -3 -23 -11 -23 -29 0 -89 -95 -172 -276 -240 -146
-55 -436 -115 -572 -118 -46 -1 -86 -6 -90 -12 -4 -5 -55 -38 -114 -74 -75
-44 -108 -69 -108 -82 0 -17 54 -336 65 -384 4 -18 20 -24 119 -44 l115 -22
213 37 c209 37 215 38 393 32 260 -10 400 -43 427 -102 11 -24 16 -26 47 -20
59 10 71 16 71 32 0 16 -167 972 -177 1011 -5 22 -30 27 -90 15z m57 -42 c0
-5 11 -71 25 -148 14 -76 50 -280 80 -453 30 -173 58 -327 61 -342 5 -24 2
-28 -18 -28 -14 0 -35 11 -48 25 -50 53 -195 83 -450 91 -166 6 -184 5 -350
-25 -96 -17 -187 -34 -202 -37 -24 -5 -27 -2 -33 28 -3 18 -23 132 -45 252
-22 121 -38 221 -36 223 2 2 104 22 227 44 243 43 358 72 488 126 153 62 240
137 255 218 5 26 12 35 26 35 11 0 20 -4 20 -9z m-1041 -508 c15 -91 59 -346
67 -384 l5 -26 -80 16 c-44 9 -82 18 -85 21 -7 7 -70 360 -65 364 10 9 135 86
140 86 3 0 11 -35 18 -77z"/>
<path d="M13560 2198 c0 -13 31 -196 68 -408 57 -320 71 -386 85 -388 12 -2
17 3 17 19 0 22 -127 749 -136 782 -8 25 -34 21 -34 -5z"/>
<path d="M12969 1905 c-5 -4 56 -376 66 -402 6 -18 35 -16 35 2 0 17 -57 345
-67 383 -5 20 -23 29 -34 17z"/>
<path d="M12475 1740 c-13 -20 12 -35 42 -24 15 5 27 14 27 19 1 14 -61 18
-69 5z"/>
<path d="M12513 1630 c-26 -10 -30 -28 -10 -36 20 -7 69 14 64 29 -5 16 -26
18 -54 7z"/>
<path d="M12527 1513 c-10 -3 -17 -12 -15 -21 3 -12 12 -16 33 -14 35 4 50 16
41 31 -7 11 -26 12 -59 4z"/>
<path d="M12451 2251 c-7 -5 -10 -14 -7 -20 8 -12 537 -16 549 -4 4 3 2 12 -4
20 -9 10 -65 13 -268 13 -141 0 -262 -4 -270 -9z"/>
<path d="M13087 2254 c-4 -4 -7 -13 -7 -21 0 -10 29 -13 136 -13 124 0 135 2
132 18 -3 15 -18 17 -129 20 -69 1 -128 -1 -132 -4z"/>
<path d="M11777 2133 c-4 -3 -7 -12 -7 -20 0 -10 56 -13 296 -13 276 0 295 1
292 18 -3 16 -26 17 -289 20 -157 1 -288 -1 -292 -5z"/>
<path d="M12445 2130 c-3 -5 -3 -14 0 -20 7 -11 537 -15 548 -4 3 3 3 12 0 20
-4 12 -52 14 -273 14 -169 0 -271 -4 -275 -10z"/>
<path d="M13087 2133 c-18 -17 -5 -33 26 -33 40 0 51 8 36 27 -12 14 -51 18
-62 6z"/>
<path d="M11777 2013 c-4 -3 -7 -12 -7 -20 0 -10 56 -13 296 -13 276 0 295 1
292 18 -3 16 -26 17 -289 20 -157 1 -288 -1 -292 -5z"/>
<path d="M12445 2010 c-13 -21 11 -31 61 -28 36 2 49 7 49 18 0 19 -99 27
-110 10z"/>
<path d="M11777 1893 c-4 -3 -7 -12 -7 -20 0 -10 53 -13 276 -13 257 0 275 1
272 18 -3 16 -25 17 -269 20 -146 1 -268 -1 -272 -5z"/>
<path d="M11777 1774 c-4 -4 -7 -13 -7 -21 0 -10 49 -13 256 -13 238 0 255 1
252 18 -3 16 -24 17 -249 20 -135 1 -248 -1 -252 -4z"/>
<path d="M11775 1650 c-16 -26 15 -30 256 -30 233 0 250 1 247 18 -3 16 -24
17 -250 20 -159 1 -249 -1 -253 -8z"/>
<path d="M11772 1523 c3 -17 24 -18 273 -18 249 0 270 1 273 18 3 16 -15 17
-273 17 -258 0 -276 -1 -273 -17z"/>
<path d="M11772 1403 c3 -17 25 -18 293 -18 268 0 290 1 293 18 3 16 -16 17
-293 17 -277 0 -296 -1 -293 -17z"/>
<path d="M13073 1363 c-7 -3 -13 -13 -13 -24 0 -10 -3 -19 -7 -19 -5 0 -73
-11 -153 -25 -80 -14 -146 -25 -146 -25 -1 0 -4 9 -7 20 -8 31 -37 25 -37 -7
0 -59 3 -60 187 -29 211 36 215 37 207 73 -8 34 -15 42 -31 36z"/>
<path d="M10033 1312 c-9 -6 -13 -58 -15 -182 l-3 -173 -150 -84 c-137 -75
-150 -85 -150 -110 0 -18 6 -29 16 -31 10 -2 82 33 162 77 80 45 151 81 158
81 7 0 77 -36 157 -81 79 -44 152 -79 161 -77 9 2 17 15 19 29 3 25 -8 33
-147 110 l-151 84 0 163 c0 188 -11 224 -57 194z"/>
<path d="M13202 1283 c3 -16 20 -18 193 -18 173 0 190 2 193 18 3 16 -11 17
-193 17 -182 0 -196 -1 -193 -17z"/>
<path d="M13013 1229 c-9 -9 11 -57 77 -190 l89 -178 -57 -11 c-31 -6 -66 -13
-77 -15 -18 -4 -33 21 -113 180 -58 117 -97 185 -107 185 -8 0 -15 -7 -15 -15
0 -8 39 -92 86 -187 62 -123 82 -173 73 -178 -6 -5 -9 -14 -6 -22 8 -21 302
30 302 52 0 8 -10 16 -22 18 -18 3 -42 41 -118 188 -53 101 -97 184 -99 184
-1 0 -7 -5 -13 -11z"/>
<path d="M9087 1070 c-67 -26 -112 -63 -144 -118 -25 -42 -28 -57 -28 -133 0
-69 -4 -91 -17 -106 -28 -30 -23 -80 10 -111 15 -15 36 -49 46 -77 18 -47 76
-116 121 -142 20 -11 20 -11 0 -18 -118 -43 -204 -110 -244 -190 -13 -25 -25
-73 -28 -106 l-6 -59 403 0 402 0 -7 57 c-8 65 -18 92 -57 150 -38 56 -107
108 -181 135 -52 19 -58 23 -41 32 44 25 113 106 125 148 7 24 26 55 41 70 33
30 37 71 11 108 -13 18 -18 45 -18 100 0 64 -4 83 -30 129 -69 125 -227 183
-358 131z m176 -76 c64 -22 124 -90 133 -150 3 -25 5 -47 3 -49 -2 -2 -29 5
-59 15 -30 11 -63 19 -72 20 -9 0 -40 5 -68 11 -45 10 -54 15 -66 46 -17 39
-11 41 -94 -30 -43 -37 -45 -38 -48 -17 -2 12 7 43 20 68 18 36 36 53 77 74
61 32 107 35 174 12z m-52 -234 c47 -11 105 -27 129 -36 l42 -17 -4 -71 c-3
-39 -12 -85 -21 -103 -61 -117 -239 -125 -313 -13 -21 32 -27 55 -31 123 l-6
83 39 33 c27 22 45 30 59 25 11 -3 59 -14 106 -24z m9 -414 c0 -19 -14 -28
-34 -20 -25 10 -19 34 9 34 15 0 25 -6 25 -14z m193 -112 c37 -24 97 -105 97
-131 0 -10 -62 -13 -311 -13 l-311 0 7 28 c14 59 108 145 172 158 24 4 43 -1
81 -22 l49 -27 54 30 c51 29 56 30 89 16 19 -7 52 -25 73 -39z"/>
<path d="M10789 1075 c-55 -18 -133 -83 -158 -134 -25 -48 -35 -120 -23 -162
8 -30 6 -39 -14 -63 -13 -15 -24 -36 -24 -47 0 -27 26 -75 44 -82 7 -3 22 -29
31 -57 17 -50 64 -109 115 -142 24 -15 24 -16 5 -23 -164 -59 -254 -158 -271
-297 l-6 -58 402 0 403 0 -6 54 c-14 140 -108 244 -271 300 -15 5 -10 13 33
52 49 44 91 107 91 137 0 7 14 26 30 42 35 33 40 86 13 124 -12 17 -16 42 -14
87 3 73 -18 129 -68 187 -69 78 -209 115 -312 82z m190 -91 c63 -32 101 -84
109 -150 5 -44 3 -47 -14 -39 -24 10 -147 41 -197 50 -31 5 -40 12 -52 42
l-15 36 -28 -24 c-15 -13 -42 -37 -59 -53 -40 -36 -50 -29 -34 23 36 122 170
175 290 115z m-74 -225 c50 -10 107 -26 128 -35 37 -17 37 -17 37 -78 -1 -129
-70 -206 -187 -206 -56 0 -110 29 -143 77 -21 31 -26 51 -29 126 l-3 89 33 29
c23 19 40 27 54 23 11 -3 61 -15 110 -25z m11 -410 c7 -12 -15 -31 -31 -26 -5
2 -11 11 -13 20 -4 19 32 24 44 6z m-74 -95 l51 -26 47 26 c59 32 69 32 129 2
66 -34 131 -111 131 -157 0 -5 -124 -9 -310 -9 -258 0 -310 2 -310 14 0 32 67
112 120 143 65 40 76 40 142 7z"/>
</g>
</svg>
